#!OML:ASF Y:\EmotionMaleHayes\Project 1\Capture day 1\Session 1\Male1.ASF
:FULLY-SPECIFIED
:DEGREES
449
root 44.7657 17.3663 -1.50899 -143.725 94.4429 -133.893
lowerback 9.02754 2.80889 -6.65642
upperback -0.567674 2.96921 -1.57009
thorax -5.92764 1.65737 1.66395
lowerneck -20.9221 0.259331 3.22081
upperneck 18.3804 -0.588993 -0.0788085
head 9.22668 -0.031482 -0.633067
rclavicle -1.62506e-014 7.15625e-015
rhumerus -44.5273 -2.02412 -81.3395
rradius 46.4429
rwrist -15.2722
rhand -16.02 -31.1377
rfingers 7.12502
rthumb 10.1809 -60.8714
lclavicle -1.62506e-014 7.15625e-015
lhumerus -41.1372 -14.9307 88.0444
lradius 50.3498
lwrist 5.86679
lhand -19.2995 -21.7489
lfingers 7.12502
lthumb 7.01601 8.11478
rfemur 13.9529 0.444535 9.80779
rtibia 7.83176
rfoot -375.869 -4.72521
rtoes 8.55833
lfemur 14.9797 0.744613 -20.4357
ltibia 5.48357
lfoot 347.863 7.75539
ltoes -7.08744
450
root 44.7662 17.3654 -1.50836 -143.005 94.4228 -133.184
lowerback 9.01497 2.76644 -6.70316
upperback -0.527081 2.91043 -1.5913
thorax -5.87395 1.62798 1.67852
lowerneck -20.8276 0.27395 3.3854
upperneck 18.1731 -0.584254 -0.221391
head 9.13688 -0.0380055 -0.707751
rclavicle -2.65378e-014 -1.90833e-014
rhumerus -44.4393 -1.95773 -81.5382
rradius 46.2756
rwrist -15.272
rhand -16.1068 -30.8473
rfingers 7.12502
rthumb 10.0971 -60.5851
lclavicle -2.65378e-014 -1.90833e-014
lhumerus -41.1732 -14.8833 88.1027
lradius 49.9036
lwrist 5.9281
lhand -19.2681 -21.6795
lfingers 7.12502
lthumb 7.04635 8.18317
rfemur 14.0317 0.530988 9.82158
rtibia 7.62958
rfoot -375.787 -4.89207
rtoes 8.55478
lfemur 14.9567 0.725822 -20.4623
ltibia 5.47944
lfoot 348.041 7.79457
ltoes -8.72294
451
root 44.7658 17.3647 -1.50715 -141.367 94.4947 -131.544
lowerback 9.08984 2.7642 -6.87532
upperback -0.544422 2.88046 -1.62951
thorax -5.93954 1.62028 1.73441
lowerneck -20.7741 0.212377 3.21376
upperneck 18.1045 -0.652714 -0.0448482
head 9.10365 -0.0629056 -0.627842
rclavicle 4.47266e-015 -2.78299e-014
rhumerus -44.4813 -1.9106 -81.6863
rradius 46.1453
rwrist -15.3858
rhand -16.225 -30.6069
rfingers 7.12502
rthumb 9.98308 -60.3502
lclavicle 4.47266e-015 -2.78299e-014
lhumerus -41.3054 -14.8302 88.216
lradius 49.4851
lwrist 5.98177
lhand -19.0652 -21.5782
lfingers 7.12502
lthumb 7.24218 8.27784
rfemur 14.0751 0.574917 9.67264
rtibia 7.55305
rfoot -375.768 -4.97664
rtoes 8.62923
lfemur 14.9347 0.698668 -20.6367
ltibia 5.53887
lfoot 348.058 7.79375
ltoes -9.25944
452
root 44.7655 17.3658 -1.50585 -141.136 94.5168 -131.343
lowerback 9.16069 2.76871 -6.92854
upperback -0.611783 2.87003 -1.64078
thorax -6.05272 1.62057 1.74811
lowerneck -20.6331 0.225066 3.00691
upperneck 18.1113 -0.612468 0.171837
head 9.08342 -0.0332503 -0.513602
rclavicle 2.70347e-014 -3.18055e-014
rhumerus -44.6016 -1.89341 -81.8083
rradius 46.0357
rwrist -15.4774
rhand -16.1791 -30.7036
rfingers 7.12502
rthumb 10.0274 -60.4447
lclavicle 2.70347e-014 -3.18055e-014
lhumerus -41.5992 -14.6687 88.3122
lradius 49.1345
lwrist 5.93903
lhand -18.8592 -21.6727
lfingers 7.12502
lthumb 7.44107 8.17642
rfemur 14.0459 0.649476 9.67504
rtibia 7.57522
rfoot -375.827 -5.01014
rtoes 8.98436
lfemur 14.8934 0.684136 -20.6636
ltibia 5.5725
lfoot 348.063 7.81983
ltoes -8.91582
453
root 44.7656 17.3646 -1.50541 -141.194 94.5154 -131.381
lowerback 9.21719 2.76645 -6.91842
upperback -0.619103 2.86226 -1.6516
thorax -6.09076 1.61733 1.72948
lowerneck -20.7243 0.1347 2.79214
upperneck 18.2503 -0.722745 0.387394
head 9.14796 -0.0723923 -0.419648
rclavicle 1.49089e-016 -3.02153e-014
rhumerus -44.6969 -1.91964 -81.9261
rradius 45.9877
rwrist -15.484
rhand -16.0554 -30.9268
rfingers 7.12502
rthumb 10.1467 -60.6622
lclavicle 1.49089e-016 -3.02153e-014
lhumerus -41.8129 -14.3926 88.3395
lradius 48.7724
lwrist 5.68534
lhand -18.6372 -21.8744
lfingers 7.12502
lthumb 7.6553 7.967
rfemur 14.0909 0.682502 9.68859
rtibia 7.53711
rfoot -375.81 -4.99665
rtoes 9.27313
lfemur 14.9133 0.722877 -20.6428
ltibia 5.54755
lfoot 348.15 7.8575
ltoes -9.13701
454
root 44.772 17.3632 -1.51031 -145.271 94.253 -135.413
lowerback 9.16148 2.72969 -6.42472
upperback -0.527328 2.88024 -1.54383
thorax -5.94222 1.60606 1.57162
lowerneck -20.8961 0.10533 2.70807
upperneck 18.3268 -0.749728 0.408132
head 9.2049 -0.0874224 -0.402906
rclavicle 3.84648e-014 -3.02153e-014
rhumerus -44.744 -2.04663 -81.954
rradius 46.0439
rwrist -15.439
rhand -16.0669 -30.9091
rfingers 7.12502
rthumb 10.1356 -60.645
lclavicle 3.84648e-014 -3.02153e-014
lhumerus -41.8059 -14.1133 88.3763
lradius 48.2824
lwrist 5.27282
lhand -18.3982 -21.9816
lfingers 7.12502
lthumb 7.88597 7.85127
rfemur 14.2173 0.411435 10.0665
rtibia 7.50514
rfoot -375.729 -4.73605
rtoes 9.30652
lfemur 15.0684 0.737095 -20.1968
ltibia 5.43954
lfoot 348.175 7.83829
ltoes -9.44095
455
root 44.7719 17.3646 -1.51088 -146.821 94.1867 -136.974
lowerback 9.08477 2.72297 -6.30835
upperback -0.42424 2.89797 -1.48129
thorax -5.78792 1.60677 1.57686
lowerneck -21.1045 0.0826895 2.59185
upperneck 18.3846 -0.765489 0.459513
head 9.26232 -0.0963643 -0.368809
rclavicle -1.50082e-014 -7.15625e-015
rhumerus -44.6796 -2.14165 -81.9614
rradius 46.0464
rwrist -15.4126
rhand -16.0742 -30.9276
rfingers 7.12502
rthumb 10.1285 -60.6638
lclavicle -1.50082e-014 -7.15625e-015
lhumerus -41.721 -13.9357 88.4588
lradius 47.7609
lwrist 5.07683
lhand -18.3655 -22.1955
lfingers 7.12502
lthumb 7.91756 7.63627
rfemur 14.2124 0.389828 10.2146
rtibia 7.51829
rfoot -375.766 -4.69058
rtoes 9.28305
lfemur 15.0849 0.728181 -20.0454
ltibia 5.44716
lfoot 348.117 7.81184
ltoes -9.22576
456
root 44.7678 17.3624 -1.50822 -143.667 94.3656 -133.754
lowerback 9.3004 2.76035 -6.65434
upperback -0.442549 2.88964 -1.54874
thorax -5.94369 1.61671 1.68895
lowerneck -21.0451 0.0453973 2.52002
upperneck 18.3914 -0.803573 0.511648
head 9.25425 -0.112996 -0.344206
rclavicle 1.51573e-014 0
rhumerus -44.7897 -2.19052 -82.0121
rradius 45.9867
rwrist -15.3384
rhand -15.8884 -31.3087
rfingers 7.12502
rthumb 10.3078 -61.0361
lclavicle 1.51573e-014 0
lhumerus -41.8992 -13.8389 88.5867
lradius 47.2963
lwrist 4.98091
lhand -18.534 -22.532
lfingers 7.12502
lthumb 7.75492 7.30577
rfemur 14.2587 0.506137 9.88505
rtibia 7.54066
rfoot -375.839 -4.74371
rtoes 9.53533
lfemur 15.1145 0.726068 -20.3862
ltibia 5.44872
lfoot 348.142 7.82815
ltoes -9.00704
457
root 44.764 17.3597 -1.50527 -141.593 94.524 -131.653
lowerback 9.5002 2.7813 -6.95889
upperback -0.492325 2.86252 -1.5887
thorax -6.12175 1.61785 1.80936
lowerneck -21.1051 -0.0317582 2.64634
upperneck 18.5825 -0.891979 0.243468
head 9.32812 -0.17322 -0.470599
rclavicle 2.14687e-014 2.22639e-014
rhumerus -44.9246 -2.24834 -82.0787
rradius 45.897
rwrist -15.2485
rhand -15.7981 -31.6259
rfingers 7.12502
rthumb 10.3949 -61.349
lclavicle 2.14687e-014 2.22639e-014
lhumerus -42.0765 -13.5873 88.6616
lradius 46.7545
lwrist 4.78327
lhand -18.5846 -22.7824
lfingers 7.12502
lthumb 7.70607 7.05722
rfemur 14.2458 0.546858 9.63442
rtibia 7.61996
rfoot -375.878 -4.79197
rtoes 9.48828
lfemur 15.1087 0.74399 -20.6299
ltibia 5.41818
lfoot 348.209 7.87126
ltoes -8.70678
458
root 44.7595 17.3651 -1.50392 -153.439 94.029 -143.665
lowerback 9.33301 2.7315 -5.89093
upperback -0.451376 2.93748 -1.35988
thorax -5.94412 1.61746 1.45388
lowerneck -21.1127 -0.0262424 2.59052
upperneck 18.4899 -0.908888 0.428726
head 9.29863 -0.164874 -0.399395
rclavicle -2.78299e-015 -5.96354e-014
rhumerus -44.7662 -2.3713 -82.22
rradius 45.6764
rwrist -15.2562
rhand -15.9808 -31.445
rfingers 7.12502
rthumb 10.2187 -61.1768
lclavicle -2.78299e-015 -5.96354e-014
lhumerus -41.9734 -13.4205 88.6306
lradius 46.2008
lwrist 4.85579
lhand -18.4216 -22.8759
lfingers 7.12502
lthumb 7.86346 6.95786
rfemur 14.0069 0.679852 10.9978
rtibia 7.73521
rfoot -375.982 -4.9298
rtoes 10.0354
lfemur 15.0117 0.748768 -19.3541
ltibia 5.40024
lfoot 348.147 7.84405
ltoes -7.9285
459
root 44.7562 17.3658 -1.51339 -156.171 93.9104 -146.496
lowerback 9.39345 2.6856 -5.53439
upperback -0.54619 2.90677 -1.33729
thorax -6.05865 1.59435 1.27814
lowerneck -21.0256 0.0173681 2.44052
upperneck 18.5469 -0.869416 0.747748
head 9.30651 -0.1182 -0.258626
rclavicle 7.60351e-015 -4.37326e-014
rhumerus -44.8438 -2.31269 -82.3454
rradius 45.4205
rwrist -15.2736
rhand -16.019 -31.1312
rfingers 7.12502
rthumb 10.1819 -60.8648
lclavicle 7.60351e-015 -4.37326e-014
lhumerus -42.1856 -13.2415 88.6711
lradius 45.8616
lwrist 4.7991
lhand -18.282 -22.7533
lfingers 7.12502
lthumb 7.99821 7.07537
rfemur 13.8767 0.377042 11.1188
rtibia 7.83607
rfoot -376.031 -4.48813
rtoes 11.4241
lfemur 14.9337 0.731077 -19.1745
ltibia 5.40796
lfoot 348.093 7.83518
ltoes -7.73808
